<svg xmlns="http://www.w3.org/2000/svg" viewBox="0 0 178 69" fill="none">
  <path d="M35.19 0C16.25 0 .85 15.41.85 34.34.85 53.27 16.26 68.68 35.19 68.68c18.93 0 34.34-15.41 34.34-34.34C69.53 15.41 54.12 0 35.19 0zm.03 51.95c-9.83 0-17.84-8-17.84-17.84 0-9.83 8-17.83 17.84-17.83 9.83 0 17.83 8 17.83 17.83 0 9.84-8 17.84-17.83 17.84z" fill="#144FFF"/>
  <path fill-rule="evenodd" clip-rule="evenodd" d="M87.77.96c-4.84 0-8.77 3.93-8.77 8.77v49.22c0 4.84 3.93 8.77 8.77 8.77 4.84 0 8.77-3.93 8.77-8.77V9.73c0-4.84-3.93-8.77-8.77-8.77z" fill="#144FFF"/>
  <path fill-rule="evenodd" clip-rule="evenodd" d="M114.81.96c-4.84 0-8.77 3.93-8.77 8.77v49.22c0 4.84 3.93 8.77 8.77 8.77 4.83 0 8.77-3.93 8.77-8.77V9.73c0-4.84-3.94-8.77-8.77-8.77z" fill="#144FFF"/>
  <path fill-rule="evenodd" clip-rule="evenodd" d="M141.83 23.16c-4.84 0-8.77 3.93-8.77 8.77v5.8c0 4.83 3.93 8.77 8.77 8.77 4.84 0 8.77-3.94 8.77-8.77v-5.8c0-4.84-3.93-8.77-8.77-8.77z" fill="#144FFF"/>
  <path fill-rule="evenodd" clip-rule="evenodd" d="M168.85 13.51c-4.84 0-8.77 3.94-8.77 8.77v24.13c0 4.84 3.93 8.77 8.77 8.77 4.84 0 8.77-3.93 8.77-8.77V22.28c0-4.83-3.93-8.77-8.77-8.77z" fill="#144FFF"/>
</svg>
